<mxfile host="Electron" modified="2024-09-13T02:14:40.643Z" agent="Mozilla/5.0 (Windows NT 10.0; Win64; x64) AppleWebKit/537.36 (KHTML, like Gecko) draw.io/22.1.11 Chrome/114.0.5735.289 Electron/25.9.8 Safari/537.36" etag="F6kefCwaUz7uYFyDSS_R" version="22.1.11" type="device">
  <diagram name="第 1 页" id="sh-w2n2RwF6hMmeByxSM">
    <mxGraphModel dx="794" dy="519" grid="1" gridSize="10" guides="1" tooltips="1" connect="1" arrows="1" fold="1" page="1" pageScale="1" pageWidth="827" pageHeight="1169" math="0" shadow="0">
      <root>
        <mxCell id="0" />
        <mxCell id="1" parent="0" />
        <mxCell id="9FxN_paoqt2Ul9Nxy-ZI-74" value="" style="group" parent="1" vertex="1" connectable="0">
          <mxGeometry x="100" y="145" width="680" height="195" as="geometry" />
        </mxCell>
        <mxCell id="9FxN_paoqt2Ul9Nxy-ZI-26" value="" style="group" parent="9FxN_paoqt2Ul9Nxy-ZI-74" vertex="1" connectable="0">
          <mxGeometry x="20" y="15" width="640" height="160" as="geometry" />
        </mxCell>
        <mxCell id="9FxN_paoqt2Ul9Nxy-ZI-7" value="&lt;font size=&quot;1&quot; style=&quot;&quot;&gt;&lt;b style=&quot;font-size: 18px;&quot;&gt;0x62fe00&lt;/b&gt;&lt;/font&gt;" style="rounded=0;whiteSpace=wrap;html=1;fillColor=none;" parent="9FxN_paoqt2Ul9Nxy-ZI-26" vertex="1">
          <mxGeometry x="440" y="40" width="80" height="80" as="geometry" />
        </mxCell>
        <mxCell id="9FxN_paoqt2Ul9Nxy-ZI-8" value="&lt;b&gt;&lt;font style=&quot;font-size: 18px;&quot;&gt;0x62fdf8&lt;/font&gt;&lt;/b&gt;" style="rounded=0;whiteSpace=wrap;html=1;fillColor=none;" parent="9FxN_paoqt2Ul9Nxy-ZI-26" vertex="1">
          <mxGeometry x="560" y="40" width="80" height="80" as="geometry" />
        </mxCell>
        <mxCell id="9FxN_paoqt2Ul9Nxy-ZI-9" value="&lt;font style=&quot;font-size: 16px;&quot;&gt;x[0]&lt;/font&gt;" style="text;html=1;strokeColor=none;fillColor=none;align=center;verticalAlign=middle;whiteSpace=wrap;rounded=0;" parent="9FxN_paoqt2Ul9Nxy-ZI-26" vertex="1">
          <mxGeometry x="10" width="60" height="30" as="geometry" />
        </mxCell>
        <mxCell id="9FxN_paoqt2Ul9Nxy-ZI-10" value="&lt;font style=&quot;font-size: 16px;&quot;&gt;0x62fe00&lt;/font&gt;" style="text;html=1;strokeColor=none;fillColor=none;align=center;verticalAlign=middle;whiteSpace=wrap;rounded=0;" parent="9FxN_paoqt2Ul9Nxy-ZI-26" vertex="1">
          <mxGeometry x="10" y="130" width="60" height="30" as="geometry" />
        </mxCell>
        <mxCell id="9FxN_paoqt2Ul9Nxy-ZI-12" value="&lt;font style=&quot;font-size: 16px;&quot;&gt;0x62fe04&lt;/font&gt;" style="text;html=1;strokeColor=none;fillColor=none;align=center;verticalAlign=middle;whiteSpace=wrap;rounded=0;" parent="9FxN_paoqt2Ul9Nxy-ZI-26" vertex="1">
          <mxGeometry x="90" y="130" width="60" height="30" as="geometry" />
        </mxCell>
        <mxCell id="9FxN_paoqt2Ul9Nxy-ZI-13" value="&lt;font style=&quot;font-size: 16px;&quot;&gt;0x62fe08&lt;/font&gt;" style="text;html=1;strokeColor=none;fillColor=none;align=center;verticalAlign=middle;whiteSpace=wrap;rounded=0;" parent="9FxN_paoqt2Ul9Nxy-ZI-26" vertex="1">
          <mxGeometry x="170" y="130" width="60" height="30" as="geometry" />
        </mxCell>
        <mxCell id="9FxN_paoqt2Ul9Nxy-ZI-14" value="&lt;font style=&quot;font-size: 16px;&quot;&gt;0x62fe0c&lt;/font&gt;" style="text;html=1;strokeColor=none;fillColor=none;align=center;verticalAlign=middle;whiteSpace=wrap;rounded=0;" parent="9FxN_paoqt2Ul9Nxy-ZI-26" vertex="1">
          <mxGeometry x="250" y="130" width="60" height="30" as="geometry" />
        </mxCell>
        <mxCell id="9FxN_paoqt2Ul9Nxy-ZI-15" value="&lt;font style=&quot;font-size: 16px;&quot;&gt;0x62fe10&lt;/font&gt;" style="text;html=1;strokeColor=none;fillColor=none;align=center;verticalAlign=middle;whiteSpace=wrap;rounded=0;" parent="9FxN_paoqt2Ul9Nxy-ZI-26" vertex="1">
          <mxGeometry x="330" y="130" width="60" height="30" as="geometry" />
        </mxCell>
        <mxCell id="9FxN_paoqt2Ul9Nxy-ZI-16" value="" style="group" parent="9FxN_paoqt2Ul9Nxy-ZI-26" vertex="1" connectable="0">
          <mxGeometry y="40" width="400" height="80" as="geometry" />
        </mxCell>
        <mxCell id="9FxN_paoqt2Ul9Nxy-ZI-2" value="&lt;font style=&quot;font-size: 18px;&quot;&gt;&lt;b&gt;2&lt;/b&gt;&lt;/font&gt;" style="rounded=0;whiteSpace=wrap;html=1;fillColor=none;" parent="9FxN_paoqt2Ul9Nxy-ZI-16" vertex="1">
          <mxGeometry width="80" height="80" as="geometry" />
        </mxCell>
        <mxCell id="9FxN_paoqt2Ul9Nxy-ZI-3" value="&lt;font style=&quot;font-size: 18px;&quot;&gt;&lt;b&gt;4&lt;/b&gt;&lt;/font&gt;" style="rounded=0;whiteSpace=wrap;html=1;fillColor=none;" parent="9FxN_paoqt2Ul9Nxy-ZI-16" vertex="1">
          <mxGeometry x="80" width="80" height="80" as="geometry" />
        </mxCell>
        <mxCell id="9FxN_paoqt2Ul9Nxy-ZI-4" value="&lt;b&gt;&lt;font style=&quot;font-size: 18px;&quot;&gt;6&lt;/font&gt;&lt;/b&gt;" style="rounded=0;whiteSpace=wrap;html=1;fillColor=none;" parent="9FxN_paoqt2Ul9Nxy-ZI-16" vertex="1">
          <mxGeometry x="160" width="80" height="80" as="geometry" />
        </mxCell>
        <mxCell id="9FxN_paoqt2Ul9Nxy-ZI-5" value="&lt;b&gt;&lt;font style=&quot;font-size: 18px;&quot;&gt;8&lt;/font&gt;&lt;/b&gt;" style="rounded=0;whiteSpace=wrap;html=1;fillColor=none;" parent="9FxN_paoqt2Ul9Nxy-ZI-16" vertex="1">
          <mxGeometry x="240" width="80" height="80" as="geometry" />
        </mxCell>
        <mxCell id="9FxN_paoqt2Ul9Nxy-ZI-6" value="&lt;b&gt;&lt;font style=&quot;font-size: 18px;&quot;&gt;10&lt;/font&gt;&lt;/b&gt;" style="rounded=0;whiteSpace=wrap;html=1;fillColor=none;" parent="9FxN_paoqt2Ul9Nxy-ZI-16" vertex="1">
          <mxGeometry x="320" width="80" height="80" as="geometry" />
        </mxCell>
        <mxCell id="9FxN_paoqt2Ul9Nxy-ZI-17" value="&lt;font style=&quot;font-size: 16px;&quot;&gt;x[1]&lt;/font&gt;" style="text;html=1;strokeColor=none;fillColor=none;align=center;verticalAlign=middle;whiteSpace=wrap;rounded=0;" parent="9FxN_paoqt2Ul9Nxy-ZI-26" vertex="1">
          <mxGeometry x="90" width="60" height="30" as="geometry" />
        </mxCell>
        <mxCell id="9FxN_paoqt2Ul9Nxy-ZI-18" value="&lt;font style=&quot;font-size: 16px;&quot;&gt;x[2]&lt;/font&gt;" style="text;html=1;strokeColor=none;fillColor=none;align=center;verticalAlign=middle;whiteSpace=wrap;rounded=0;" parent="9FxN_paoqt2Ul9Nxy-ZI-26" vertex="1">
          <mxGeometry x="170" width="60" height="30" as="geometry" />
        </mxCell>
        <mxCell id="9FxN_paoqt2Ul9Nxy-ZI-19" value="&lt;font style=&quot;font-size: 16px;&quot;&gt;x[3]&lt;/font&gt;" style="text;html=1;strokeColor=none;fillColor=none;align=center;verticalAlign=middle;whiteSpace=wrap;rounded=0;" parent="9FxN_paoqt2Ul9Nxy-ZI-26" vertex="1">
          <mxGeometry x="250" width="60" height="30" as="geometry" />
        </mxCell>
        <mxCell id="9FxN_paoqt2Ul9Nxy-ZI-20" value="&lt;font style=&quot;font-size: 16px;&quot;&gt;x[4]&lt;/font&gt;" style="text;html=1;strokeColor=none;fillColor=none;align=center;verticalAlign=middle;whiteSpace=wrap;rounded=0;" parent="9FxN_paoqt2Ul9Nxy-ZI-26" vertex="1">
          <mxGeometry x="330" width="60" height="30" as="geometry" />
        </mxCell>
        <mxCell id="9FxN_paoqt2Ul9Nxy-ZI-21" value="&lt;font style=&quot;font-size: 16px;&quot;&gt;*p&lt;/font&gt;" style="text;html=1;strokeColor=none;fillColor=none;align=center;verticalAlign=middle;whiteSpace=wrap;rounded=0;" parent="9FxN_paoqt2Ul9Nxy-ZI-26" vertex="1">
          <mxGeometry x="450" width="60" height="30" as="geometry" />
        </mxCell>
        <mxCell id="9FxN_paoqt2Ul9Nxy-ZI-22" value="&lt;font style=&quot;font-size: 16px;&quot;&gt;**p&lt;/font&gt;" style="text;html=1;strokeColor=none;fillColor=none;align=center;verticalAlign=middle;whiteSpace=wrap;rounded=0;" parent="9FxN_paoqt2Ul9Nxy-ZI-26" vertex="1">
          <mxGeometry x="570" width="60" height="30" as="geometry" />
        </mxCell>
        <mxCell id="9FxN_paoqt2Ul9Nxy-ZI-23" value="&lt;font style=&quot;font-size: 16px;&quot;&gt;0x62fdf8&lt;/font&gt;" style="text;html=1;strokeColor=none;fillColor=none;align=center;verticalAlign=middle;whiteSpace=wrap;rounded=0;" parent="9FxN_paoqt2Ul9Nxy-ZI-26" vertex="1">
          <mxGeometry x="450" y="130" width="60" height="30" as="geometry" />
        </mxCell>
        <mxCell id="9FxN_paoqt2Ul9Nxy-ZI-25" value="&lt;font style=&quot;font-size: 16px;&quot;&gt;0x62fdf0&lt;/font&gt;" style="text;html=1;strokeColor=none;fillColor=none;align=center;verticalAlign=middle;whiteSpace=wrap;rounded=0;" parent="9FxN_paoqt2Ul9Nxy-ZI-26" vertex="1">
          <mxGeometry x="570" y="130" width="60" height="30" as="geometry" />
        </mxCell>
        <mxCell id="9FxN_paoqt2Ul9Nxy-ZI-28" value="&lt;font size=&quot;1&quot; style=&quot;&quot;&gt;&lt;b style=&quot;font-size: 18px;&quot;&gt;0x62fe00&lt;/b&gt;&lt;/font&gt;" style="rounded=0;whiteSpace=wrap;html=1;fillColor=none;" parent="9FxN_paoqt2Ul9Nxy-ZI-74" vertex="1">
          <mxGeometry x="460" y="55" width="80" height="80" as="geometry" />
        </mxCell>
        <mxCell id="9FxN_paoqt2Ul9Nxy-ZI-29" value="&lt;b&gt;&lt;font style=&quot;font-size: 18px;&quot;&gt;0x62fdf8&lt;/font&gt;&lt;/b&gt;" style="rounded=0;whiteSpace=wrap;html=1;fillColor=none;" parent="9FxN_paoqt2Ul9Nxy-ZI-74" vertex="1">
          <mxGeometry x="580" y="55" width="80" height="80" as="geometry" />
        </mxCell>
        <mxCell id="9FxN_paoqt2Ul9Nxy-ZI-30" value="&lt;font style=&quot;font-size: 16px;&quot;&gt;x[0]&lt;/font&gt;" style="text;html=1;strokeColor=none;fillColor=none;align=center;verticalAlign=middle;whiteSpace=wrap;rounded=0;" parent="9FxN_paoqt2Ul9Nxy-ZI-74" vertex="1">
          <mxGeometry x="30" y="15" width="60" height="30" as="geometry" />
        </mxCell>
        <mxCell id="9FxN_paoqt2Ul9Nxy-ZI-31" value="&lt;font style=&quot;font-size: 16px;&quot;&gt;0x62fe00&lt;/font&gt;" style="text;html=1;strokeColor=none;fillColor=none;align=center;verticalAlign=middle;whiteSpace=wrap;rounded=0;" parent="9FxN_paoqt2Ul9Nxy-ZI-74" vertex="1">
          <mxGeometry x="30" y="145" width="60" height="30" as="geometry" />
        </mxCell>
        <mxCell id="9FxN_paoqt2Ul9Nxy-ZI-32" value="&lt;font style=&quot;font-size: 16px;&quot;&gt;0x62fe04&lt;/font&gt;" style="text;html=1;strokeColor=none;fillColor=none;align=center;verticalAlign=middle;whiteSpace=wrap;rounded=0;" parent="9FxN_paoqt2Ul9Nxy-ZI-74" vertex="1">
          <mxGeometry x="110" y="145" width="60" height="30" as="geometry" />
        </mxCell>
        <mxCell id="9FxN_paoqt2Ul9Nxy-ZI-33" value="&lt;font style=&quot;font-size: 16px;&quot;&gt;0x62fe08&lt;/font&gt;" style="text;html=1;strokeColor=none;fillColor=none;align=center;verticalAlign=middle;whiteSpace=wrap;rounded=0;" parent="9FxN_paoqt2Ul9Nxy-ZI-74" vertex="1">
          <mxGeometry x="190" y="145" width="60" height="30" as="geometry" />
        </mxCell>
        <mxCell id="9FxN_paoqt2Ul9Nxy-ZI-34" value="&lt;font style=&quot;font-size: 16px;&quot;&gt;0x62fe0c&lt;/font&gt;" style="text;html=1;strokeColor=none;fillColor=none;align=center;verticalAlign=middle;whiteSpace=wrap;rounded=0;" parent="9FxN_paoqt2Ul9Nxy-ZI-74" vertex="1">
          <mxGeometry x="270" y="145" width="60" height="30" as="geometry" />
        </mxCell>
        <mxCell id="9FxN_paoqt2Ul9Nxy-ZI-35" value="&lt;font style=&quot;font-size: 16px;&quot;&gt;0x62fe10&lt;/font&gt;" style="text;html=1;strokeColor=none;fillColor=none;align=center;verticalAlign=middle;whiteSpace=wrap;rounded=0;" parent="9FxN_paoqt2Ul9Nxy-ZI-74" vertex="1">
          <mxGeometry x="350" y="145" width="60" height="30" as="geometry" />
        </mxCell>
        <mxCell id="9FxN_paoqt2Ul9Nxy-ZI-36" value="" style="group" parent="9FxN_paoqt2Ul9Nxy-ZI-74" vertex="1" connectable="0">
          <mxGeometry x="20" y="55" width="400" height="80" as="geometry" />
        </mxCell>
        <mxCell id="9FxN_paoqt2Ul9Nxy-ZI-37" value="&lt;font style=&quot;font-size: 18px;&quot;&gt;&lt;b&gt;2&lt;/b&gt;&lt;/font&gt;" style="rounded=0;whiteSpace=wrap;html=1;fillColor=none;" parent="9FxN_paoqt2Ul9Nxy-ZI-36" vertex="1">
          <mxGeometry width="80" height="80" as="geometry" />
        </mxCell>
        <mxCell id="9FxN_paoqt2Ul9Nxy-ZI-38" value="&lt;font style=&quot;font-size: 18px;&quot;&gt;&lt;b&gt;4&lt;/b&gt;&lt;/font&gt;" style="rounded=0;whiteSpace=wrap;html=1;fillColor=none;" parent="9FxN_paoqt2Ul9Nxy-ZI-36" vertex="1">
          <mxGeometry x="80" width="80" height="80" as="geometry" />
        </mxCell>
        <mxCell id="9FxN_paoqt2Ul9Nxy-ZI-39" value="&lt;b&gt;&lt;font style=&quot;font-size: 18px;&quot;&gt;6&lt;/font&gt;&lt;/b&gt;" style="rounded=0;whiteSpace=wrap;html=1;fillColor=none;" parent="9FxN_paoqt2Ul9Nxy-ZI-36" vertex="1">
          <mxGeometry x="160" width="80" height="80" as="geometry" />
        </mxCell>
        <mxCell id="9FxN_paoqt2Ul9Nxy-ZI-40" value="&lt;b&gt;&lt;font style=&quot;font-size: 18px;&quot;&gt;8&lt;/font&gt;&lt;/b&gt;" style="rounded=0;whiteSpace=wrap;html=1;fillColor=none;" parent="9FxN_paoqt2Ul9Nxy-ZI-36" vertex="1">
          <mxGeometry x="240" width="80" height="80" as="geometry" />
        </mxCell>
        <mxCell id="9FxN_paoqt2Ul9Nxy-ZI-41" value="&lt;b&gt;&lt;font style=&quot;font-size: 18px;&quot;&gt;10&lt;/font&gt;&lt;/b&gt;" style="rounded=0;whiteSpace=wrap;html=1;fillColor=none;" parent="9FxN_paoqt2Ul9Nxy-ZI-36" vertex="1">
          <mxGeometry x="320" width="80" height="80" as="geometry" />
        </mxCell>
        <mxCell id="9FxN_paoqt2Ul9Nxy-ZI-42" value="&lt;font style=&quot;font-size: 16px;&quot;&gt;x[1]&lt;/font&gt;" style="text;html=1;strokeColor=none;fillColor=none;align=center;verticalAlign=middle;whiteSpace=wrap;rounded=0;" parent="9FxN_paoqt2Ul9Nxy-ZI-74" vertex="1">
          <mxGeometry x="110" y="15" width="60" height="30" as="geometry" />
        </mxCell>
        <mxCell id="9FxN_paoqt2Ul9Nxy-ZI-43" value="&lt;font style=&quot;font-size: 16px;&quot;&gt;x[2]&lt;/font&gt;" style="text;html=1;strokeColor=none;fillColor=none;align=center;verticalAlign=middle;whiteSpace=wrap;rounded=0;" parent="9FxN_paoqt2Ul9Nxy-ZI-74" vertex="1">
          <mxGeometry x="190" y="15" width="60" height="30" as="geometry" />
        </mxCell>
        <mxCell id="9FxN_paoqt2Ul9Nxy-ZI-44" value="&lt;font style=&quot;font-size: 16px;&quot;&gt;x[3]&lt;/font&gt;" style="text;html=1;strokeColor=none;fillColor=none;align=center;verticalAlign=middle;whiteSpace=wrap;rounded=0;" parent="9FxN_paoqt2Ul9Nxy-ZI-74" vertex="1">
          <mxGeometry x="270" y="15" width="60" height="30" as="geometry" />
        </mxCell>
        <mxCell id="9FxN_paoqt2Ul9Nxy-ZI-45" value="&lt;font style=&quot;font-size: 16px;&quot;&gt;x[4]&lt;/font&gt;" style="text;html=1;strokeColor=none;fillColor=none;align=center;verticalAlign=middle;whiteSpace=wrap;rounded=0;" parent="9FxN_paoqt2Ul9Nxy-ZI-74" vertex="1">
          <mxGeometry x="350" y="15" width="60" height="30" as="geometry" />
        </mxCell>
        <mxCell id="9FxN_paoqt2Ul9Nxy-ZI-46" value="&lt;font style=&quot;font-size: 16px;&quot;&gt;*p&lt;/font&gt;" style="text;html=1;strokeColor=none;fillColor=none;align=center;verticalAlign=middle;whiteSpace=wrap;rounded=0;" parent="9FxN_paoqt2Ul9Nxy-ZI-74" vertex="1">
          <mxGeometry x="470" y="15" width="60" height="30" as="geometry" />
        </mxCell>
        <mxCell id="9FxN_paoqt2Ul9Nxy-ZI-47" value="&lt;font style=&quot;font-size: 16px;&quot;&gt;**p&lt;/font&gt;" style="text;html=1;strokeColor=none;fillColor=none;align=center;verticalAlign=middle;whiteSpace=wrap;rounded=0;" parent="9FxN_paoqt2Ul9Nxy-ZI-74" vertex="1">
          <mxGeometry x="590" y="15" width="60" height="30" as="geometry" />
        </mxCell>
        <mxCell id="9FxN_paoqt2Ul9Nxy-ZI-48" value="&lt;font style=&quot;font-size: 16px;&quot;&gt;0x62fdf8&lt;/font&gt;" style="text;html=1;strokeColor=none;fillColor=none;align=center;verticalAlign=middle;whiteSpace=wrap;rounded=0;" parent="9FxN_paoqt2Ul9Nxy-ZI-74" vertex="1">
          <mxGeometry x="470" y="145" width="60" height="30" as="geometry" />
        </mxCell>
        <mxCell id="9FxN_paoqt2Ul9Nxy-ZI-49" value="&lt;font style=&quot;font-size: 16px;&quot;&gt;0x62fdf0&lt;/font&gt;" style="text;html=1;strokeColor=none;fillColor=none;align=center;verticalAlign=middle;whiteSpace=wrap;rounded=0;" parent="9FxN_paoqt2Ul9Nxy-ZI-74" vertex="1">
          <mxGeometry x="590" y="145" width="60" height="30" as="geometry" />
        </mxCell>
        <mxCell id="9FxN_paoqt2Ul9Nxy-ZI-73" value="" style="rounded=0;whiteSpace=wrap;html=1;fillColor=none;" parent="9FxN_paoqt2Ul9Nxy-ZI-74" vertex="1">
          <mxGeometry width="680" height="195" as="geometry" />
        </mxCell>
        <mxCell id="9FxN_paoqt2Ul9Nxy-ZI-121" value="" style="rounded=0;whiteSpace=wrap;html=1;fillColor=none;" parent="1" vertex="1">
          <mxGeometry x="100" y="420" width="680" height="195" as="geometry" />
        </mxCell>
        <mxCell id="9FxN_paoqt2Ul9Nxy-ZI-76" value="" style="group" parent="1" vertex="1" connectable="0">
          <mxGeometry x="120" y="435" width="640" height="160" as="geometry" />
        </mxCell>
        <mxCell id="9FxN_paoqt2Ul9Nxy-ZI-78" value="&lt;b&gt;&lt;font style=&quot;font-size: 18px;&quot;&gt;0x62fdf8&lt;/font&gt;&lt;/b&gt;" style="rounded=0;whiteSpace=wrap;html=1;fillColor=none;" parent="9FxN_paoqt2Ul9Nxy-ZI-76" vertex="1">
          <mxGeometry x="560" y="40" width="80" height="80" as="geometry" />
        </mxCell>
        <mxCell id="9FxN_paoqt2Ul9Nxy-ZI-79" value="&lt;font style=&quot;font-size: 16px;&quot;&gt;x[0]&lt;/font&gt;" style="text;html=1;strokeColor=none;fillColor=none;align=center;verticalAlign=middle;whiteSpace=wrap;rounded=0;" parent="9FxN_paoqt2Ul9Nxy-ZI-76" vertex="1">
          <mxGeometry x="10" width="60" height="30" as="geometry" />
        </mxCell>
        <mxCell id="9FxN_paoqt2Ul9Nxy-ZI-80" value="&lt;font style=&quot;font-size: 16px;&quot;&gt;0x62fe00&lt;/font&gt;" style="text;html=1;strokeColor=none;fillColor=none;align=center;verticalAlign=middle;whiteSpace=wrap;rounded=0;" parent="9FxN_paoqt2Ul9Nxy-ZI-76" vertex="1">
          <mxGeometry x="10" y="130" width="60" height="30" as="geometry" />
        </mxCell>
        <mxCell id="9FxN_paoqt2Ul9Nxy-ZI-81" value="&lt;font style=&quot;font-size: 16px;&quot;&gt;0x62fe04&lt;/font&gt;" style="text;html=1;strokeColor=none;fillColor=none;align=center;verticalAlign=middle;whiteSpace=wrap;rounded=0;" parent="9FxN_paoqt2Ul9Nxy-ZI-76" vertex="1">
          <mxGeometry x="90" y="130" width="60" height="30" as="geometry" />
        </mxCell>
        <mxCell id="9FxN_paoqt2Ul9Nxy-ZI-82" value="&lt;font style=&quot;font-size: 16px;&quot;&gt;0x62fe08&lt;/font&gt;" style="text;html=1;strokeColor=none;fillColor=none;align=center;verticalAlign=middle;whiteSpace=wrap;rounded=0;" parent="9FxN_paoqt2Ul9Nxy-ZI-76" vertex="1">
          <mxGeometry x="170" y="130" width="60" height="30" as="geometry" />
        </mxCell>
        <mxCell id="9FxN_paoqt2Ul9Nxy-ZI-83" value="&lt;font style=&quot;font-size: 16px;&quot;&gt;0x62fe0c&lt;/font&gt;" style="text;html=1;strokeColor=none;fillColor=none;align=center;verticalAlign=middle;whiteSpace=wrap;rounded=0;" parent="9FxN_paoqt2Ul9Nxy-ZI-76" vertex="1">
          <mxGeometry x="250" y="130" width="60" height="30" as="geometry" />
        </mxCell>
        <mxCell id="9FxN_paoqt2Ul9Nxy-ZI-84" value="&lt;font style=&quot;font-size: 16px;&quot;&gt;0x62fe10&lt;/font&gt;" style="text;html=1;strokeColor=none;fillColor=none;align=center;verticalAlign=middle;whiteSpace=wrap;rounded=0;" parent="9FxN_paoqt2Ul9Nxy-ZI-76" vertex="1">
          <mxGeometry x="330" y="130" width="60" height="30" as="geometry" />
        </mxCell>
        <mxCell id="9FxN_paoqt2Ul9Nxy-ZI-85" value="" style="group" parent="9FxN_paoqt2Ul9Nxy-ZI-76" vertex="1" connectable="0">
          <mxGeometry y="40" width="400" height="80" as="geometry" />
        </mxCell>
        <mxCell id="9FxN_paoqt2Ul9Nxy-ZI-86" value="&lt;font style=&quot;font-size: 18px;&quot;&gt;&lt;b&gt;2&lt;/b&gt;&lt;/font&gt;" style="rounded=0;whiteSpace=wrap;html=1;fillColor=none;" parent="9FxN_paoqt2Ul9Nxy-ZI-85" vertex="1">
          <mxGeometry width="80" height="80" as="geometry" />
        </mxCell>
        <mxCell id="9FxN_paoqt2Ul9Nxy-ZI-87" value="&lt;font style=&quot;font-size: 18px;&quot;&gt;&lt;b&gt;4&lt;/b&gt;&lt;/font&gt;" style="rounded=0;whiteSpace=wrap;html=1;fillColor=none;" parent="9FxN_paoqt2Ul9Nxy-ZI-85" vertex="1">
          <mxGeometry x="80" width="80" height="80" as="geometry" />
        </mxCell>
        <mxCell id="9FxN_paoqt2Ul9Nxy-ZI-88" value="&lt;b&gt;&lt;font style=&quot;font-size: 18px;&quot;&gt;6&lt;/font&gt;&lt;/b&gt;" style="rounded=0;whiteSpace=wrap;html=1;fillColor=none;" parent="9FxN_paoqt2Ul9Nxy-ZI-85" vertex="1">
          <mxGeometry x="160" width="80" height="80" as="geometry" />
        </mxCell>
        <mxCell id="9FxN_paoqt2Ul9Nxy-ZI-89" value="&lt;b&gt;&lt;font style=&quot;font-size: 18px;&quot;&gt;8&lt;/font&gt;&lt;/b&gt;" style="rounded=0;whiteSpace=wrap;html=1;fillColor=none;" parent="9FxN_paoqt2Ul9Nxy-ZI-85" vertex="1">
          <mxGeometry x="240" width="80" height="80" as="geometry" />
        </mxCell>
        <mxCell id="9FxN_paoqt2Ul9Nxy-ZI-90" value="&lt;b&gt;&lt;font style=&quot;font-size: 18px;&quot;&gt;10&lt;/font&gt;&lt;/b&gt;" style="rounded=0;whiteSpace=wrap;html=1;fillColor=none;" parent="9FxN_paoqt2Ul9Nxy-ZI-85" vertex="1">
          <mxGeometry x="320" width="80" height="80" as="geometry" />
        </mxCell>
        <mxCell id="9FxN_paoqt2Ul9Nxy-ZI-91" value="&lt;font style=&quot;font-size: 16px;&quot;&gt;x[1]&lt;/font&gt;" style="text;html=1;strokeColor=none;fillColor=none;align=center;verticalAlign=middle;whiteSpace=wrap;rounded=0;" parent="9FxN_paoqt2Ul9Nxy-ZI-76" vertex="1">
          <mxGeometry x="90" width="60" height="30" as="geometry" />
        </mxCell>
        <mxCell id="9FxN_paoqt2Ul9Nxy-ZI-92" value="&lt;font style=&quot;font-size: 16px;&quot;&gt;x[2]&lt;/font&gt;" style="text;html=1;strokeColor=none;fillColor=none;align=center;verticalAlign=middle;whiteSpace=wrap;rounded=0;" parent="9FxN_paoqt2Ul9Nxy-ZI-76" vertex="1">
          <mxGeometry x="170" width="60" height="30" as="geometry" />
        </mxCell>
        <mxCell id="9FxN_paoqt2Ul9Nxy-ZI-93" value="&lt;font style=&quot;font-size: 16px;&quot;&gt;x[3]&lt;/font&gt;" style="text;html=1;strokeColor=none;fillColor=none;align=center;verticalAlign=middle;whiteSpace=wrap;rounded=0;" parent="9FxN_paoqt2Ul9Nxy-ZI-76" vertex="1">
          <mxGeometry x="250" width="60" height="30" as="geometry" />
        </mxCell>
        <mxCell id="9FxN_paoqt2Ul9Nxy-ZI-94" value="&lt;font style=&quot;font-size: 16px;&quot;&gt;x[4]&lt;/font&gt;" style="text;html=1;strokeColor=none;fillColor=none;align=center;verticalAlign=middle;whiteSpace=wrap;rounded=0;" parent="9FxN_paoqt2Ul9Nxy-ZI-76" vertex="1">
          <mxGeometry x="330" width="60" height="30" as="geometry" />
        </mxCell>
        <mxCell id="9FxN_paoqt2Ul9Nxy-ZI-95" value="&lt;font style=&quot;font-size: 16px;&quot;&gt;*p&lt;/font&gt;" style="text;html=1;strokeColor=none;fillColor=none;align=center;verticalAlign=middle;whiteSpace=wrap;rounded=0;" parent="9FxN_paoqt2Ul9Nxy-ZI-76" vertex="1">
          <mxGeometry x="450" width="60" height="30" as="geometry" />
        </mxCell>
        <mxCell id="9FxN_paoqt2Ul9Nxy-ZI-96" value="&lt;font style=&quot;font-size: 16px;&quot;&gt;**p&lt;/font&gt;" style="text;html=1;strokeColor=none;fillColor=none;align=center;verticalAlign=middle;whiteSpace=wrap;rounded=0;" parent="9FxN_paoqt2Ul9Nxy-ZI-76" vertex="1">
          <mxGeometry x="570" width="60" height="30" as="geometry" />
        </mxCell>
        <mxCell id="9FxN_paoqt2Ul9Nxy-ZI-97" value="&lt;font style=&quot;font-size: 16px;&quot;&gt;0x62fdf8&lt;/font&gt;" style="text;html=1;strokeColor=none;fillColor=none;align=center;verticalAlign=middle;whiteSpace=wrap;rounded=0;" parent="9FxN_paoqt2Ul9Nxy-ZI-76" vertex="1">
          <mxGeometry x="450" y="130" width="60" height="30" as="geometry" />
        </mxCell>
        <mxCell id="9FxN_paoqt2Ul9Nxy-ZI-98" value="&lt;font style=&quot;font-size: 16px;&quot;&gt;0x62fdf0&lt;/font&gt;" style="text;html=1;strokeColor=none;fillColor=none;align=center;verticalAlign=middle;whiteSpace=wrap;rounded=0;" parent="9FxN_paoqt2Ul9Nxy-ZI-76" vertex="1">
          <mxGeometry x="570" y="130" width="60" height="30" as="geometry" />
        </mxCell>
        <mxCell id="9FxN_paoqt2Ul9Nxy-ZI-100" value="&lt;b&gt;&lt;font style=&quot;font-size: 18px;&quot;&gt;0x62fdf8&lt;/font&gt;&lt;/b&gt;" style="rounded=0;whiteSpace=wrap;html=1;fillColor=none;" parent="1" vertex="1">
          <mxGeometry x="680" y="475" width="80" height="80" as="geometry" />
        </mxCell>
        <mxCell id="9FxN_paoqt2Ul9Nxy-ZI-101" value="&lt;font style=&quot;font-size: 16px;&quot;&gt;x[0]&lt;/font&gt;" style="text;html=1;strokeColor=none;fillColor=none;align=center;verticalAlign=middle;whiteSpace=wrap;rounded=0;" parent="1" vertex="1">
          <mxGeometry x="130" y="435" width="60" height="30" as="geometry" />
        </mxCell>
        <mxCell id="9FxN_paoqt2Ul9Nxy-ZI-102" value="&lt;font style=&quot;font-size: 16px;&quot;&gt;0x62fe00&lt;/font&gt;" style="text;html=1;strokeColor=none;fillColor=none;align=center;verticalAlign=middle;whiteSpace=wrap;rounded=0;" parent="1" vertex="1">
          <mxGeometry x="130" y="565" width="60" height="30" as="geometry" />
        </mxCell>
        <mxCell id="9FxN_paoqt2Ul9Nxy-ZI-103" value="&lt;font style=&quot;font-size: 16px;&quot;&gt;0x62fe04&lt;/font&gt;" style="text;html=1;strokeColor=none;fillColor=none;align=center;verticalAlign=middle;whiteSpace=wrap;rounded=0;" parent="1" vertex="1">
          <mxGeometry x="210" y="565" width="60" height="30" as="geometry" />
        </mxCell>
        <mxCell id="9FxN_paoqt2Ul9Nxy-ZI-104" value="&lt;font style=&quot;font-size: 16px;&quot;&gt;0x62fe08&lt;/font&gt;" style="text;html=1;strokeColor=none;fillColor=none;align=center;verticalAlign=middle;whiteSpace=wrap;rounded=0;" parent="1" vertex="1">
          <mxGeometry x="290" y="565" width="60" height="30" as="geometry" />
        </mxCell>
        <mxCell id="9FxN_paoqt2Ul9Nxy-ZI-105" value="&lt;font style=&quot;font-size: 16px;&quot;&gt;0x62fe0c&lt;/font&gt;" style="text;html=1;strokeColor=none;fillColor=none;align=center;verticalAlign=middle;whiteSpace=wrap;rounded=0;" parent="1" vertex="1">
          <mxGeometry x="370" y="565" width="60" height="30" as="geometry" />
        </mxCell>
        <mxCell id="9FxN_paoqt2Ul9Nxy-ZI-106" value="&lt;font style=&quot;font-size: 16px;&quot;&gt;0x62fe10&lt;/font&gt;" style="text;html=1;strokeColor=none;fillColor=none;align=center;verticalAlign=middle;whiteSpace=wrap;rounded=0;" parent="1" vertex="1">
          <mxGeometry x="450" y="565" width="60" height="30" as="geometry" />
        </mxCell>
        <mxCell id="9FxN_paoqt2Ul9Nxy-ZI-107" value="" style="group" parent="1" vertex="1" connectable="0">
          <mxGeometry x="120" y="475" width="400" height="80" as="geometry" />
        </mxCell>
        <mxCell id="9FxN_paoqt2Ul9Nxy-ZI-108" value="&lt;font style=&quot;font-size: 18px;&quot;&gt;&lt;b&gt;2&lt;/b&gt;&lt;/font&gt;" style="rounded=0;whiteSpace=wrap;html=1;fillColor=none;" parent="9FxN_paoqt2Ul9Nxy-ZI-107" vertex="1">
          <mxGeometry width="80" height="80" as="geometry" />
        </mxCell>
        <mxCell id="9FxN_paoqt2Ul9Nxy-ZI-109" value="&lt;font style=&quot;font-size: 18px;&quot;&gt;&lt;b&gt;4&lt;/b&gt;&lt;/font&gt;" style="rounded=0;whiteSpace=wrap;html=1;fillColor=none;" parent="9FxN_paoqt2Ul9Nxy-ZI-107" vertex="1">
          <mxGeometry x="80" width="80" height="80" as="geometry" />
        </mxCell>
        <mxCell id="9FxN_paoqt2Ul9Nxy-ZI-110" value="&lt;b&gt;&lt;font style=&quot;font-size: 18px;&quot;&gt;6&lt;/font&gt;&lt;/b&gt;" style="rounded=0;whiteSpace=wrap;html=1;fillColor=none;" parent="9FxN_paoqt2Ul9Nxy-ZI-107" vertex="1">
          <mxGeometry x="160" width="80" height="80" as="geometry" />
        </mxCell>
        <mxCell id="9FxN_paoqt2Ul9Nxy-ZI-111" value="&lt;b&gt;&lt;font style=&quot;font-size: 18px;&quot;&gt;8&lt;/font&gt;&lt;/b&gt;" style="rounded=0;whiteSpace=wrap;html=1;fillColor=none;" parent="9FxN_paoqt2Ul9Nxy-ZI-107" vertex="1">
          <mxGeometry x="240" width="80" height="80" as="geometry" />
        </mxCell>
        <mxCell id="9FxN_paoqt2Ul9Nxy-ZI-112" value="&lt;b&gt;&lt;font style=&quot;font-size: 18px;&quot;&gt;10&lt;/font&gt;&lt;/b&gt;" style="rounded=0;whiteSpace=wrap;html=1;fillColor=none;" parent="9FxN_paoqt2Ul9Nxy-ZI-107" vertex="1">
          <mxGeometry x="320" width="80" height="80" as="geometry" />
        </mxCell>
        <mxCell id="9FxN_paoqt2Ul9Nxy-ZI-113" value="&lt;font style=&quot;font-size: 16px;&quot;&gt;x[1]&lt;/font&gt;" style="text;html=1;strokeColor=none;fillColor=none;align=center;verticalAlign=middle;whiteSpace=wrap;rounded=0;" parent="1" vertex="1">
          <mxGeometry x="210" y="435" width="60" height="30" as="geometry" />
        </mxCell>
        <mxCell id="9FxN_paoqt2Ul9Nxy-ZI-114" value="&lt;font style=&quot;font-size: 16px;&quot;&gt;x[2]&lt;/font&gt;" style="text;html=1;strokeColor=none;fillColor=none;align=center;verticalAlign=middle;whiteSpace=wrap;rounded=0;" parent="1" vertex="1">
          <mxGeometry x="290" y="435" width="60" height="30" as="geometry" />
        </mxCell>
        <mxCell id="9FxN_paoqt2Ul9Nxy-ZI-115" value="&lt;font style=&quot;font-size: 16px;&quot;&gt;x[3]&lt;/font&gt;" style="text;html=1;strokeColor=none;fillColor=none;align=center;verticalAlign=middle;whiteSpace=wrap;rounded=0;" parent="1" vertex="1">
          <mxGeometry x="370" y="435" width="60" height="30" as="geometry" />
        </mxCell>
        <mxCell id="9FxN_paoqt2Ul9Nxy-ZI-116" value="&lt;font style=&quot;font-size: 16px;&quot;&gt;x[4]&lt;/font&gt;" style="text;html=1;strokeColor=none;fillColor=none;align=center;verticalAlign=middle;whiteSpace=wrap;rounded=0;" parent="1" vertex="1">
          <mxGeometry x="450" y="435" width="60" height="30" as="geometry" />
        </mxCell>
        <mxCell id="9FxN_paoqt2Ul9Nxy-ZI-117" value="&lt;font style=&quot;font-size: 16px;&quot;&gt;*p&lt;/font&gt;" style="text;html=1;strokeColor=none;fillColor=none;align=center;verticalAlign=middle;whiteSpace=wrap;rounded=0;" parent="1" vertex="1">
          <mxGeometry x="570" y="435" width="60" height="30" as="geometry" />
        </mxCell>
        <mxCell id="9FxN_paoqt2Ul9Nxy-ZI-118" value="&lt;font style=&quot;font-size: 16px;&quot;&gt;**p&lt;/font&gt;" style="text;html=1;strokeColor=none;fillColor=none;align=center;verticalAlign=middle;whiteSpace=wrap;rounded=0;" parent="1" vertex="1">
          <mxGeometry x="690" y="435" width="60" height="30" as="geometry" />
        </mxCell>
        <mxCell id="9FxN_paoqt2Ul9Nxy-ZI-119" value="&lt;font style=&quot;font-size: 16px;&quot;&gt;0x62fdf8&lt;/font&gt;" style="text;html=1;strokeColor=none;fillColor=none;align=center;verticalAlign=middle;whiteSpace=wrap;rounded=0;" parent="1" vertex="1">
          <mxGeometry x="570" y="565" width="60" height="30" as="geometry" />
        </mxCell>
        <mxCell id="9FxN_paoqt2Ul9Nxy-ZI-120" value="&lt;font style=&quot;font-size: 16px;&quot;&gt;0x62fdf0&lt;/font&gt;" style="text;html=1;strokeColor=none;fillColor=none;align=center;verticalAlign=middle;whiteSpace=wrap;rounded=0;" parent="1" vertex="1">
          <mxGeometry x="690" y="565" width="60" height="30" as="geometry" />
        </mxCell>
        <mxCell id="dpLoDet-URApckGHwGw9-1" value="&lt;b&gt;&lt;font style=&quot;font-size: 18px;&quot;&gt;0x62fe04&lt;/font&gt;&lt;/b&gt;" style="rounded=0;whiteSpace=wrap;html=1;fillColor=none;" vertex="1" parent="1">
          <mxGeometry x="560" y="477.5" width="80" height="80" as="geometry" />
        </mxCell>
        <mxCell id="dpLoDet-URApckGHwGw9-2" value="" style="shape=flexArrow;endArrow=classic;html=1;rounded=0;exitX=0.5;exitY=1;exitDx=0;exitDy=0;entryX=0.5;entryY=0;entryDx=0;entryDy=0;" edge="1" parent="1" source="9FxN_paoqt2Ul9Nxy-ZI-73" target="9FxN_paoqt2Ul9Nxy-ZI-121">
          <mxGeometry width="50" height="50" relative="1" as="geometry">
            <mxPoint x="380" y="490" as="sourcePoint" />
            <mxPoint x="430" y="440" as="targetPoint" />
          </mxGeometry>
        </mxCell>
      </root>
    </mxGraphModel>
  </diagram>
</mxfile>
